<?xml version="1.0" encoding="utf-8"?>
<!-- Generator: Adobe Illustrator 21.1.0, SVG Export Plug-In . SVG Version: 6.00 Build 0)  -->
<svg version="1.1" id="Layer_1" xmlns="http://www.w3.org/2000/svg" xmlns:xlink="http://www.w3.org/1999/xlink" x="0px" y="0px"
	 viewBox="0 0 443 97" style="enable-background:new 0 0 443 97;" xml:space="preserve">
<style type="text/css">
	.st0{fill:#3F3F3F;}
	.st1{fill:#CC3737;stroke:#CC3737;stroke-miterlimit:10;}
	.st2{fill:#CC3737;}
	.st3{fill:none;stroke:#000000;stroke-width:6;stroke-linecap:round;stroke-miterlimit:10;}
	.st4{fill:none;stroke:#000000;stroke-width:6;stroke-linecap:round;stroke-linejoin:round;stroke-miterlimit:10;}
	.st5{fill:none;stroke:#CC3737;stroke-width:8;stroke-linecap:round;stroke-miterlimit:10;}
	.st6{fill:none;stroke:#CC3737;stroke-width:8;stroke-linecap:round;stroke-linejoin:round;stroke-miterlimit:10;}
	.st7{fill-rule:evenodd;clip-rule:evenodd;fill:#CC3737;}
	.st8{fill:#CC3737;stroke:#CC3737;stroke-width:4;stroke-miterlimit:10;}
	.st9{fill:#3F3F3F;stroke:#3F3F3F;stroke-width:2;stroke-miterlimit:10;}
	.st10{fill-rule:evenodd;clip-rule:evenodd;}
</style>
<g>
	<path class="st0" d="M135.3,67.1c-3.5,5.1-9.2,7.6-16.9,7.6c-5.6,0-9.9-1.7-12.8-5c-2.9-3.3-4.4-8.1-4.4-14.6l0.2-34.4l5.8,0
		L107,54.4c-0.1,10.1,4,15.1,12.1,15.2c8.5,0,13.8-3.4,16.1-10.4l0.2-38.2l5.9,0L141,73.8l-5.7,0L135.3,67.1z"/>
	<path class="st0" d="M198.8,48.2c0,8.2-1.9,14.8-5.6,19.6c-3.7,4.8-8.6,7.2-14.7,7.2c-7.2,0-12.7-2.6-16.6-7.7l-0.2,27l-5.8,0
		l0.4-73.1l5.4,0l0.3,7.5c3.8-5.6,9.4-8.4,16.6-8.4c6.3,0,11.3,2.5,14.8,7.3c3.6,4.8,5.3,11.5,5.3,20L198.8,48.2z M193,47.2
		c0-6.7-1.3-12.1-4.1-16s-6.6-5.9-11.5-5.9c-3.6,0-6.7,0.8-9.2,2.5s-4.6,4.2-6,7.5l-0.1,25.3c1.4,3,3.4,5.4,6,7s5.7,2.4,9.2,2.4
		c4.9,0,8.8-1.9,11.5-5.8C191.5,60.3,192.9,54.6,193,47.2z"/>
	<path class="st2" d="M227.7,3.2l20.2,54.6l20.8-54.4l16,0.1l-0.4,71.1l-12.3-0.1l0.1-23.4l1.4-31.3l-21.3,54.7l-8.8,0l-20.6-54.9
		l1,31.3l-0.1,23.4l-12.3-0.1l0.4-71.1L227.7,3.2z"/>
	<path class="st2" d="M320.9,75.8c-7.5,0-13.6-2.4-18.2-7.2c-4.6-4.8-6.9-11.1-6.9-19l0-1.5c0-5.3,1.1-10,3.1-14.1
		c2.1-4.1,4.9-7.4,8.6-9.6c3.7-2.3,7.8-3.4,12.3-3.4c7.2,0,12.7,2.4,16.6,7c3.9,4.6,5.8,11.1,5.8,19.5l0,4.8l-34.5-0.2
		c0.3,4.4,1.8,7.8,4.3,10.4c2.5,2.6,5.7,3.8,9.6,3.9c5.4,0,9.9-2.1,13.3-6.5l6.4,6.1c-2.1,3.1-5,5.6-8.5,7.3S325.3,75.8,320.9,75.8z
		 M319.7,30.5c-3.3,0-5.9,1.1-7.9,3.4c-2,2.3-3.3,5.4-3.9,9.5l22.6,0.1l0-0.9c-0.2-4-1.3-7-3.1-9C325.6,31.6,323,30.5,319.7,30.5z"
		/>
	<path class="st2" d="M374.6,76.1c-7.5,0-13.6-2.4-18.2-7.2c-4.6-4.8-6.9-11.1-6.9-19l0-1.5c0-5.3,1.1-10,3.1-14.1
		c2.1-4.1,4.9-7.4,8.6-9.6s7.8-3.4,12.3-3.4c7.2,0,12.7,2.4,16.6,7c3.9,4.6,5.8,11.1,5.8,19.5l0,4.8l-34.5-0.2
		c0.3,4.4,1.8,7.8,4.3,10.4c2.5,2.6,5.7,3.8,9.6,3.9c5.4,0,9.9-2.1,13.3-6.5l6.4,6.1c-2.1,3.1-5,5.6-8.5,7.3
		C382.9,75.2,379,76.1,374.6,76.1z M373.4,30.8c-3.3,0-5.9,1.1-7.9,3.4c-2,2.3-3.3,5.4-3.9,9.5l22.6,0.1l0-0.9c-0.2-4-1.3-7-3.1-9
		C379.3,31.9,376.7,30.8,373.4,30.8z"/>
	<path class="st2" d="M420.2,9.7l-0.1,12.8l9.3,0.1l0,8.8l-9.3-0.1l-0.2,29.5c0,2,0.4,3.5,1.2,4.4c0.8,0.9,2.2,1.4,4.3,1.4
		c1.4,0,2.8-0.1,4.2-0.5l-0.1,9.2c-2.7,0.7-5.3,1.1-7.8,1.1c-9.1-0.1-13.6-5.1-13.6-15.2l0.2-29.9l-8.7,0l0-8.8l8.7,0l0.1-12.8
		L420.2,9.7z"/>
</g>
<path class="st7" d="M53.4,77.6c0,2.9,2.3,4.8,5.1,4.2c0,0-1.5,0.4,0.2-0.1C75.2,77.1,87.3,62,87.3,44.1c0-21.6-17.5-39-39-39
	c-21.6,0-39,17.5-39,39c0,18,12.1,33.1,28.7,37.6c1.7,0.5,0.1,0,0.1,0c2.8,0.6,5.1-1.3,5.1-4.2l0-32.6c0-0.7-0.4-0.9-0.9-0.4
	c0,0-4.2,4.2-5.7,5.8c-4.9,5-12.3-2.4-7.4-7.3l15.9-15.8c1.8-1.8,4.7-1.8,6.5,0L67.4,43c4.9,4.9-2.4,12.3-7.3,7.4
	c-1.6-1.6-5.8-5.8-5.8-5.8c-0.5-0.5-0.9-0.3-0.9,0.4L53.4,77.6z"/>
</svg>
